<svg width="21.453125" height="21.452881" viewBox="0 0 21.4531 21.4529" fill="none" xmlns="http://www.w3.org/2000/svg" xmlns:xlink="http://www.w3.org/1999/xlink">
	<desc>
			Created with Pixso.
	</desc>
	<defs>
		<clipPath id="clip8_599">
			<rect rx="-0.500000" width="14.279073" height="14.059886" transform="translate(0.500000 11.303940) rotate(-45.000000)" fill="white" fill-opacity="0"/>
		</clipPath>
	</defs>
	<rect rx="-0.500000" width="14.279073" height="14.059886" transform="translate(0.500000 11.303940) rotate(-45.000000)" fill="#FFFFFF" fill-opacity="0"/>
	<g clip-path="url(#clip8_599)">
		<path d="M10.71 10.05C9.07 10.05 8.64 11.57 7.12 12.93C4.88 14.91 5.24 16.7 6.57 17.11C7.9 17.51 9.07 16.05 10.51 16.12L10.53 16.12L10.54 16.12C11.99 16.14 13.08 17.67 14.42 17.34C15.76 17.02 16.23 15.25 14.12 13.14C12.68 11.69 12.35 10.14 10.71 10.05Z" fill="#EDB24E" fill-opacity="1.000000" fill-rule="nonzero"/>
		<path d="M6.79 8.72C7.66 9.99 7.7 11.48 6.87 12.04C6.05 12.6 4.68 12.03 3.81 10.75C2.94 9.48 2.9 7.99 3.72 7.43C4.55 6.87 5.92 7.45 6.79 8.72Z" fill="#EDB24E" fill-opacity="1.000000" fill-rule="nonzero"/>
		<path d="M14.7 8.96C13.76 10.18 13.63 11.66 14.42 12.27C15.2 12.88 16.61 12.38 17.56 11.17C18.5 9.95 18.63 8.47 17.84 7.86C17.05 7.25 15.65 7.74 14.7 8.96Z" fill="#EDB24E" fill-opacity="1.000000" fill-rule="nonzero"/>
		<path d="M10.41 5.69C10.65 7.3 10 8.73 8.96 8.88C7.93 9.03 6.89 7.85 6.66 6.24C6.42 4.63 7.07 3.2 8.11 3.05C9.14 2.9 10.18 4.08 10.41 5.69Z" fill="#EDB24E" fill-opacity="1.000000" fill-rule="nonzero"/>
		<path d="M11.26 5.71C10.93 7.31 11.49 8.77 12.52 8.99C13.54 9.2 14.65 8.08 14.98 6.49C15.31 4.9 14.75 3.43 13.73 3.22C12.7 3.01 11.6 4.12 11.26 5.71Z" fill="#EDB24E" fill-opacity="1.000000" fill-rule="nonzero"/>
	</g>
</svg>
